<svg width="62" height="62" viewBox="0 0 62 62" fill="none" xmlns="http://www.w3.org/2000/svg">
<path d="M31.008 0.021001C25.103 0.0176902 19.3201 1.70145 14.3399 4.87407C9.35963 8.04673 5.38946 12.5761 2.89675 17.9291C0.40403 23.2821 -0.507508 29.2358 0.269468 35.0894C1.04644 40.943 3.47958 46.4527 7.28247 50.97C7.58665 51.3444 7.90252 51.6954 8.26519 52.1399L8.55766 52.4558L9.07242 52.9822L9.3181 53.2162L9.59887 53.4853C9.95159 53.836 10.3226 54.1679 10.7103 54.4797C11.1314 54.8541 11.5643 55.2167 11.9738 55.5209C12.3832 55.8251 12.7225 56.0942 13.1437 56.3632C13.2223 56.4348 13.3086 56.4977 13.401 56.5504C13.6701 56.7493 13.9509 56.9248 14.1732 57.0652L14.8868 57.5097H14.957C15.8344 58.0362 16.6767 58.4925 17.5308 58.9136H17.6595C18.0455 59.1008 18.4199 59.2646 18.8294 59.4167C20.278 60.0367 21.7721 60.5452 23.2984 60.9375C23.7546 61.0545 24.2109 61.1598 24.6788 61.2534C25.1468 61.347 25.568 61.4406 25.9891 61.4991L26.5273 61.581C26.8549 61.6395 27.2058 61.6746 27.5334 61.7097L28.1417 61.7799C28.4927 61.7799 28.8671 61.7799 29.2414 61.8501H29.5456C30.037 61.8501 30.5283 61.8501 31.0197 61.8501C31.511 61.8501 32.0024 61.8501 32.4938 61.8501H32.7979C33.1723 61.8501 33.5467 61.8501 33.9678 61.7682L34.4943 61.7097C34.8569 61.7097 35.2079 61.6395 35.4302 61.5927L36.0268 61.4991C36.4948 61.4991 36.9394 61.347 37.3839 61.2534L38.7995 60.9375C40.3042 60.542 41.7783 60.0375 43.21 59.4284C43.5961 59.2646 43.9704 59.1008 44.3799 58.9136L43.6078 57.3343L44.5086 58.8551C45.3626 58.434 46.205 57.9777 47.0824 57.4513L47.1877 57.3811L47.796 56.995C48.0501 56.8484 48.2961 56.6884 48.533 56.5153L48.8606 56.2931C49.2584 56.024 49.6561 55.7198 50.0305 55.4507C50.4049 55.1817 50.9079 54.7488 51.294 54.4095C51.6801 54.0703 52.0778 53.7427 52.382 53.4385L52.733 53.0992L52.499 52.8653C52.8907 52.8023 53.2494 52.6085 53.5168 52.3154L53.821 51.9878C54.1369 51.6486 54.4527 51.2976 54.7569 50.9232C58.5467 46.4034 60.9678 40.8959 61.736 35.0478C62.5042 29.1998 61.5876 23.2539 59.0937 17.9086C56.5998 12.5634 52.6324 8.04088 47.6574 4.87228C42.6823 1.70372 36.9064 0.0207319 31.008 0.021001ZM52.0661 48.7121V48.7706C51.7854 49.0982 51.5163 49.4141 51.2706 49.6714L50.8845 50.0809C50.6582 50.3343 50.5081 50.6467 50.4517 50.9817L50.2177 50.7477L49.972 50.9817C49.6678 51.2742 49.3637 51.555 49.0127 51.8474C48.6617 52.1399 48.2757 52.4675 47.8428 52.7834C47.4099 53.0992 47.1877 53.2864 46.8016 53.5672L46.5559 53.7193C46.3687 53.8597 46.1699 53.9884 45.9008 54.1521L45.3509 54.5031H45.2807C44.4969 54.9828 43.7482 55.4039 43.0696 55.673C42.9889 55.7018 42.9106 55.737 42.8356 55.7783C42.5198 55.9304 42.2156 56.0708 41.8646 56.2112C40.5956 56.7515 39.2898 57.2011 37.9572 57.5565L36.6469 57.9309C36.2608 58.0128 35.8865 58.0947 35.477 58.1532C35.3366 58.1532 35.1962 58.2117 34.9388 58.2351C34.6815 58.2585 34.4241 58.3053 34.1316 58.3404H33.6286C33.3127 58.3404 32.9968 58.3989 32.6692 58.4106H32.2949C31.4379 58.4691 30.578 58.4691 29.7211 58.4106H29.3935C29.066 58.4106 28.7501 58.4106 28.481 58.3404H27.9078L27.0186 58.2234L26.5273 58.1532C26.1295 58.1532 25.7551 58.0128 25.3574 57.9309C24.9596 57.849 24.5034 57.7437 24.1173 57.6501C22.763 57.2981 21.4373 56.8444 20.1513 56.2931C19.8238 56.1644 19.5196 56.024 19.2388 55.8953L19.0633 55.8017C18.2604 55.4245 17.4793 55.0028 16.7235 54.5382H16.6533L16.0333 54.1521C15.8344 54.0235 15.6355 53.8948 15.4484 53.7544L15.308 53.6725C15.2545 53.6231 15.1955 53.5799 15.1325 53.5438C14.8049 53.3098 14.4773 53.0758 14.1264 52.7951C13.7754 52.5143 13.3659 52.1984 12.9565 51.8474C12.547 51.4965 12.3364 51.3093 11.9738 50.9583L11.7749 50.7711L11.5292 50.5255L11.1197 50.116L10.8507 49.7416C10.5582 49.4375 10.2891 49.1216 10.0083 48.794V48.7355C6.64359 44.7267 4.4931 39.8409 3.80945 34.6521C3.12578 29.4632 3.93741 24.1871 6.14896 19.4436C8.36042 14.7002 11.8799 10.6865 16.294 7.87429C20.7079 5.06208 25.8328 3.5682 31.0665 3.5682C36.3001 3.5682 41.4251 5.06208 45.839 7.87429C50.2529 10.6865 53.7724 14.7002 55.984 19.4436C58.1955 24.1871 59.0071 29.4632 58.3234 34.6521C57.6399 39.8409 55.4893 44.7267 52.1246 48.7355L52.0661 48.7121Z" fill="#235759"/>
<path d="M47.2347 17.6279C46.8663 17.3429 46.4002 17.215 45.9379 17.2719C45.4755 17.3289 45.0545 17.5662 44.7662 17.9321L27.3464 40.1602L17.2385 27.2913C16.9464 26.9405 16.5292 26.7174 16.0754 26.6692C15.6215 26.621 15.1668 26.7516 14.8075 27.0332C14.4483 27.3148 14.2129 27.7253 14.1514 28.1775C14.0897 28.6298 14.2067 29.0881 14.4776 29.4556L25.9777 44.0793C26.1399 44.2911 26.349 44.4626 26.5885 44.5803C26.8279 44.6979 27.0913 44.7588 27.3581 44.7578C27.6249 44.7578 27.888 44.6967 28.1273 44.5791C28.3666 44.4614 28.5758 44.2905 28.7386 44.0793L47.5389 20.0964C47.8238 19.7279 47.9518 19.2618 47.8949 18.7996C47.8379 18.3372 47.6006 17.9162 47.2347 17.6279Z" fill="#235759"/>
</svg>
