<svg width="62" height="62" viewBox="0 0 62 62" fill="none" xmlns="http://www.w3.org/2000/svg">
<g clip-path="url(#clip0_236_17)">
<path d="M31 0C13.9057 0 0 13.9054 0 31C0 48.0943 13.9057 62 31 62C48.0943 62 62 48.0943 62 31C62 13.9054 48.0943 0 31 0ZM3.875 31C3.875 24.2181 6.39479 18.025 10.5243 13.264L48.736 51.4757C43.975 55.6052 37.7819 58.125 31 58.125C16.0437 58.125 3.875 45.9563 3.875 31ZM51.4759 48.736L13.2642 10.5243C18.0252 6.39483 24.2182 3.87504 31.0002 3.87504C45.9565 3.87504 58.1252 16.0438 58.1252 31C58.1252 37.782 55.6054 43.975 51.4759 48.736Z" fill="#235759"/>
</g>
<defs>
<clipPath id="clip0_236_17">
<rect width="62" height="62" fill="white"/>
</clipPath>
</defs>
</svg>
