<svg width="19" height="20" viewBox="0 0 19 20" fill="none" xmlns="http://www.w3.org/2000/svg">
<path fill-rule="evenodd" clip-rule="evenodd" d="M2.65978 2.22699C1.90953 2.22699 1.49968 3.08086 1.97998 3.64327L7.99977 10.6922C8.39736 11.1578 8.61513 11.7447 8.61513 12.3507V16.0429C8.61513 16.3147 8.74619 16.5706 8.96909 16.7337L10.3849 17.7699V12.3507C10.3849 11.7447 10.6026 11.1578 11.0002 10.6922L17.02 3.64327C17.5003 3.08086 17.0905 2.22699 16.3402 2.22699H2.65978ZM0.620375 4.74886C-0.820523 3.06161 0.409025 0.5 2.65978 0.5H16.3402C18.591 0.5 19.8206 3.06161 18.3796 4.74886L12.3598 11.7979C12.2273 11.953 12.1547 12.1487 12.1547 12.3507V17.7699C12.1547 19.193 10.4897 20.0054 9.32306 19.1514L7.90721 18.1153C7.2387 17.626 6.84529 16.8583 6.84529 16.0429V12.3507C6.84529 12.1487 6.77272 11.953 6.64019 11.7979L0.620375 4.74886Z" fill="#293644"/>
</svg>
